<svg xmlns="http://www.w3.org/2000/svg">
	<symbol id="floppy-small" viewBox="0 0 28 28">
		<rect x="0.5" width="2.15385" height="2.15385" fill="currentColor" />
		<rect x="0.5" y="2.15405" width="2.15385" height="2.15385" fill="currentColor" />
		<rect x="0.5" y="4.30762" width="2.15385" height="2.15385" fill="currentColor" />
		<rect x="0.5" y="6.46167" width="2.15385" height="2.15385" fill="currentColor" />
		<rect x="0.5" y="8.61523" width="2.15385" height="2.15385" fill="currentColor" />
		<rect x="0.5" y="10.7693" width="2.15385" height="2.15385" fill="currentColor" />
		<rect x="0.5" y="12.9231" width="2.15385" height="2.15385" fill="currentColor" />
		<rect x="0.5" y="15.0769" width="2.15385" height="2.15385" fill="currentColor" />
		<rect x="0.5" y="17.2307" width="2.15385" height="2.15385" fill="currentColor" />
		<rect x="0.5" y="19.3848" width="2.15385" height="2.15385" fill="currentColor" />
		<rect x="0.5" y="21.5383" width="2.15385" height="2.15385" fill="currentColor" />
		<rect x="0.5" y="23.6924" width="2.15385" height="2.15385" fill="currentColor" />
		<rect x="0.5" y="25.8459" width="2.15385" height="2.15385" fill="currentColor" />
		<rect x="24.1927" width="2.15385" height="2.15385" transform="rotate(90 24.1927 0)" fill="currentColor" />
		<rect x="22.0391" width="2.15385" height="2.15385" transform="rotate(90 22.0391 0)" fill="currentColor" />
		<rect x="19.884" width="2.15385" height="2.15385" transform="rotate(90 19.884 0)" fill="currentColor" />
		<rect x="17.7305" width="2.15385" height="2.15385" transform="rotate(90 17.7305 0)" fill="currentColor" />
		<rect x="15.5769" width="2.15385" height="2.15385" transform="rotate(90 15.5769 0)" fill="currentColor" />
		<rect x="13.4231" width="2.15385" height="2.15385" transform="rotate(90 13.4231 0)" fill="currentColor" />
		<rect x="11.2695" width="2.15385" height="2.15385" transform="rotate(90 11.2695 0)" fill="currentColor" />
		<rect x="9.11597" width="2.15385" height="2.15385" transform="rotate(90 9.11597 0)" fill="currentColor" />
		<rect x="6.96094" width="2.15385" height="2.15385" transform="rotate(90 6.96094 0)" fill="currentColor" />
		<rect x="4.80737" width="2.15385" height="2.15385" transform="rotate(90 4.80737 0)" fill="currentColor" />
		<rect x="26.3463" y="2.15405" width="2.15385" height="2.15385" transform="rotate(90 26.3463 2.15405)"
			fill="currentColor" />
		<rect x="6.96094" y="4.30762" width="2.15385" height="2.15385" transform="rotate(90 6.96094 4.30762)"
			fill="currentColor" />
		<rect x="6.96094" y="2.15405" width="2.15385" height="2.15385" transform="rotate(90 6.96094 2.15405)"
			fill="currentColor" />
		<rect x="6.96094" y="6.46167" width="2.15385" height="2.15385" transform="rotate(90 6.96094 6.46167)"
			fill="currentColor" />
		<rect x="22.0391" y="4.30762" width="2.15385" height="2.15385" transform="rotate(90 22.0391 4.30762)"
			fill="currentColor" />
		<rect x="22.0391" y="2.15405" width="2.15385" height="2.15385" transform="rotate(90 22.0391 2.15405)"
			fill="currentColor" />
		<rect x="22.0391" y="6.46167" width="2.15385" height="2.15385" transform="rotate(90 22.0391 6.46167)"
			fill="currentColor" />
		<rect x="17.7305" y="4.30762" width="2.15385" height="2.15385" transform="rotate(90 17.7305 4.30762)"
			fill="currentColor" />
		<rect x="17.7305" y="2.15405" width="2.15385" height="2.15385" transform="rotate(90 17.7305 2.15405)"
			fill="currentColor" />
		<rect x="17.7305" y="6.46167" width="2.15385" height="2.15385" transform="rotate(90 17.7305 6.46167)"
			fill="currentColor" />
		<rect x="22.0391" y="8.61523" width="2.15385" height="2.15385" transform="rotate(90 22.0391 8.61523)"
			fill="currentColor" />
		<rect x="19.884" y="8.61523" width="2.15385" height="2.15385" transform="rotate(90 19.884 8.61523)"
			fill="currentColor" />
		<rect x="17.7305" y="8.61523" width="2.15385" height="2.15385" transform="rotate(90 17.7305 8.61523)"
			fill="currentColor" />
		<rect x="15.5769" y="8.61523" width="2.15385" height="2.15385" transform="rotate(90 15.5769 8.61523)"
			fill="currentColor" />
		<rect x="13.4231" y="8.61523" width="2.15385" height="2.15385" transform="rotate(90 13.4231 8.61523)"
			fill="currentColor" />
		<rect x="11.2695" y="8.61523" width="2.15385" height="2.15385" transform="rotate(90 11.2695 8.61523)"
			fill="currentColor" />
		<rect x="9.11597" y="8.61523" width="2.15385" height="2.15385" transform="rotate(90 9.11597 8.61523)"
			fill="currentColor" />
		<rect x="6.96094" y="8.61523" width="2.15385" height="2.15385" transform="rotate(90 6.96094 8.61523)"
			fill="currentColor" />
		<rect x="24.1927" y="15.0769" width="2.15385" height="2.15385" transform="rotate(90 24.1927 15.0769)"
			fill="currentColor" />
		<rect x="22.0391" y="15.0769" width="2.15385" height="2.15385" transform="rotate(90 22.0391 15.0769)"
			fill="currentColor" />
		<rect x="19.884" y="15.0769" width="2.15385" height="2.15385" transform="rotate(90 19.884 15.0769)"
			fill="currentColor" />
		<rect x="17.7305" y="15.0769" width="2.15385" height="2.15385" transform="rotate(90 17.7305 15.0769)"
			fill="currentColor" />
		<rect x="15.5769" y="15.0769" width="2.15385" height="2.15385" transform="rotate(90 15.5769 15.0769)"
			fill="currentColor" />
		<rect x="13.4231" y="15.0769" width="2.15385" height="2.15385" transform="rotate(90 13.4231 15.0769)"
			fill="currentColor" />
		<rect x="11.2695" y="15.0769" width="2.15385" height="2.15385" transform="rotate(90 11.2695 15.0769)"
			fill="currentColor" />
		<rect x="9.11597" y="15.0769" width="2.15385" height="2.15385" transform="rotate(90 9.11597 15.0769)"
			fill="currentColor" />
		<rect x="6.96094" y="15.0769" width="2.15385" height="2.15385" transform="rotate(90 6.96094 15.0769)"
			fill="currentColor" />
		<rect x="24.1927" y="17.2307" width="2.15385" height="2.15385" transform="rotate(90 24.1927 17.2307)"
			fill="currentColor" />
		<rect x="6.96094" y="17.2307" width="2.15385" height="2.15385" transform="rotate(90 6.96094 17.2307)"
			fill="currentColor" />
		<rect x="24.1927" y="19.3848" width="2.15385" height="2.15385" transform="rotate(90 24.1927 19.3848)"
			fill="currentColor" />
		<rect x="6.96094" y="19.3848" width="2.15385" height="2.15385" transform="rotate(90 6.96094 19.3848)"
			fill="currentColor" />
		<rect x="24.1927" y="21.5383" width="2.15385" height="2.15385" transform="rotate(90 24.1927 21.5383)"
			fill="currentColor" />
		<rect x="6.96094" y="21.5383" width="2.15385" height="2.15385" transform="rotate(90 6.96094 21.5383)"
			fill="currentColor" />
		<rect x="6.96094" y="23.6924" width="2.15385" height="2.15385" transform="rotate(90 6.96094 23.6924)"
			fill="currentColor" />
		<rect x="24.1927" y="23.6924" width="2.15385" height="2.15385" transform="rotate(90 24.1927 23.6924)"
			fill="currentColor" />
		<rect x="26.3463" y="25.8459" width="2.15385" height="2.15385" transform="rotate(90 26.3463 25.8459)"
			fill="currentColor" />
		<rect x="24.1927" y="25.8459" width="2.15385" height="2.15385" transform="rotate(90 24.1927 25.8459)"
			fill="currentColor" />
		<rect x="22.0391" y="25.8459" width="2.15385" height="2.15385" transform="rotate(90 22.0391 25.8459)"
			fill="currentColor" />
		<rect x="19.884" y="25.8459" width="2.15385" height="2.15385" transform="rotate(90 19.884 25.8459)"
			fill="currentColor" />
		<rect x="17.7305" y="25.8459" width="2.15385" height="2.15385" transform="rotate(90 17.7305 25.8459)"
			fill="currentColor" />
		<rect x="15.5769" y="25.8459" width="2.15385" height="2.15385" transform="rotate(90 15.5769 25.8459)"
			fill="currentColor" />
		<rect x="13.4231" y="25.8459" width="2.15385" height="2.15385" transform="rotate(90 13.4231 25.8459)"
			fill="currentColor" />
		<rect x="11.2695" y="25.8459" width="2.15385" height="2.15385" transform="rotate(90 11.2695 25.8459)"
			fill="currentColor" />
		<rect x="9.11597" y="25.8459" width="2.15385" height="2.15385" transform="rotate(90 9.11597 25.8459)"
			fill="currentColor" />
		<rect x="6.96094" y="25.8459" width="2.15385" height="2.15385" transform="rotate(90 6.96094 25.8459)"
			fill="currentColor" />
		<rect x="4.80737" y="25.8459" width="2.15385" height="2.15385" transform="rotate(90 4.80737 25.8459)"
			fill="currentColor" />
		<rect x="28.5" y="28" width="2.15385" height="2.15385" transform="rotate(-180 28.5 28)" fill="currentColor" />
		<rect x="28.5" y="25.8459" width="2.15385" height="2.15385" transform="rotate(-180 28.5 25.8459)"
			fill="currentColor" />
		<rect x="28.5" y="23.6924" width="2.15385" height="2.15385" transform="rotate(-180 28.5 23.6924)"
			fill="currentColor" />
		<rect x="28.5" y="21.5383" width="2.15385" height="2.15385" transform="rotate(-180 28.5 21.5383)"
			fill="currentColor" />
		<rect x="28.5" y="19.3848" width="2.15385" height="2.15385" transform="rotate(-180 28.5 19.3848)"
			fill="currentColor" />
		<rect x="28.5" y="17.2307" width="2.15385" height="2.15385" transform="rotate(-180 28.5 17.2307)"
			fill="currentColor" />
		<rect x="28.5" y="15.0769" width="2.15385" height="2.15385" transform="rotate(-180 28.5 15.0769)"
			fill="currentColor" />
		<rect x="28.5" y="12.9231" width="2.15385" height="2.15385" transform="rotate(-180 28.5 12.9231)"
			fill="currentColor" />
		<rect x="28.5" y="10.7693" width="2.15385" height="2.15385" transform="rotate(-180 28.5 10.7693)"
			fill="currentColor" />
		<rect x="28.5" y="8.61523" width="2.15385" height="2.15385" transform="rotate(-180 28.5 8.61523)"
			fill="currentColor" />
		<rect x="28.5" y="6.46167" width="2.15385" height="2.15385" transform="rotate(-180 28.5 6.46167)"
			fill="currentColor" />
	</symbol>
	<!-- <symbol id="floppy-big" viewBox="0 0 39 39">
		<rect width="3.00001" height="3" fill="currentColor" />
		<rect y="3" width="3.00001" height="3" fill="currentColor" />
		<rect y="6" width="3.00001" height="3" fill="currentColor" />
		<rect y="9" width="3.00001" height="3" fill="currentColor" />
		<rect y="12" width="3.00001" height="3" fill="currentColor" />
		<rect y="15" width="3.00001" height="3" fill="currentColor" />
		<rect y="18" width="3.00001" height="3" fill="currentColor" />
		<rect y="21" width="3.00001" height="3" fill="currentColor" />
		<rect y="24" width="3.00001" height="3" fill="currentColor" />
		<rect y="27" width="3.00001" height="3" fill="currentColor" />
		<rect y="30" width="3.00001" height="3" fill="currentColor" />
		<rect y="33" width="3.00001" height="3" fill="currentColor" />
		<rect y="36" width="3.00001" height="3" fill="currentColor" />
		<rect x="33" width="3" height="3.00001" transform="rotate(90 33 0)" fill="currentColor" />
		<rect x="30.0032" width="3" height="3.00001" transform="rotate(90 30.0032 0)" fill="currentColor" />
		<rect x="26.9998" width="3" height="3.00001" transform="rotate(90 26.9998 0)" fill="currentColor" />
		<rect x="23.9998" width="3" height="3.00001" transform="rotate(90 23.9998 0)" fill="currentColor" />
		<rect x="20.999" width="3" height="3.00001" transform="rotate(90 20.999 0)" fill="currentColor" />
		<rect x="17.9998" width="3" height="3.00001" transform="rotate(90 17.9998 0)" fill="currentColor" />
		<rect x="14.999" width="3" height="3.00001" transform="rotate(90 14.999 0)" fill="currentColor" />
		<rect x="12" width="3" height="3.00001" transform="rotate(90 12 0)" fill="currentColor" />
		<rect x="8.99609" width="3" height="3.00001" transform="rotate(90 8.99609 0)" fill="currentColor" />
		<rect x="6" width="3" height="3.00001" transform="rotate(90 6 0)" fill="currentColor" />
		<rect x="36.0007" y="3" width="3" height="3.00001" transform="rotate(90 36.0007 3)" fill="currentColor" />
		<rect x="8.99609" y="6" width="3" height="3.00001" transform="rotate(90 8.99609 6)" fill="currentColor" />
		<rect x="8.99609" y="3" width="3" height="3.00001" transform="rotate(90 8.99609 3)" fill="currentColor" />
		<rect x="8.99609" y="9" width="3" height="3.00001" transform="rotate(90 8.99609 9)" fill="currentColor" />
		<rect x="30.0032" y="6" width="3" height="3.00001" transform="rotate(90 30.0032 6)" fill="currentColor" />
		<rect x="30.0032" y="3" width="3" height="3.00001" transform="rotate(90 30.0032 3)" fill="currentColor" />
		<rect x="30.0032" y="9" width="3" height="3.00001" transform="rotate(90 30.0032 9)" fill="currentColor" />
		<rect x="23.9998" y="6" width="3" height="3.00001" transform="rotate(90 23.9998 6)" fill="currentColor" />
		<rect x="23.9998" y="3" width="3" height="3.00001" transform="rotate(90 23.9998 3)" fill="currentColor" />
		<rect x="23.9998" y="9" width="3" height="3.00001" transform="rotate(90 23.9998 9)" fill="currentColor" />
		<rect x="30.0032" y="12" width="3" height="3.00001" transform="rotate(90 30.0032 12)" fill="currentColor" />
		<rect x="26.9998" y="12" width="3" height="3.00001" transform="rotate(90 26.9998 12)" fill="currentColor" />
		<rect x="23.9998" y="12" width="3" height="3.00001" transform="rotate(90 23.9998 12)" fill="currentColor" />
		<rect x="20.999" y="12" width="3" height="3.00001" transform="rotate(90 20.999 12)" fill="currentColor" />
		<rect x="17.9998" y="12" width="3" height="3.00001" transform="rotate(90 17.9998 12)" fill="currentColor" />
		<rect x="14.999" y="12" width="3" height="3.00001" transform="rotate(90 14.999 12)" fill="currentColor" />
		<rect x="12" y="12" width="3" height="3.00001" transform="rotate(90 12 12)" fill="currentColor" />
		<rect x="8.99609" y="12" width="3" height="3.00001" transform="rotate(90 8.99609 12)" fill="currentColor" />
		<rect x="33" y="21" width="3" height="3.00001" transform="rotate(90 33 21)" fill="currentColor" />
		<rect x="30.0032" y="21" width="3" height="3.00001" transform="rotate(90 30.0032 21)" fill="currentColor" />
		<rect x="26.9998" y="21" width="3" height="3.00001" transform="rotate(90 26.9998 21)" fill="currentColor" />
		<rect x="23.9998" y="21" width="3" height="3.00001" transform="rotate(90 23.9998 21)" fill="currentColor" />
		<rect x="20.999" y="21" width="3" height="3.00001" transform="rotate(90 20.999 21)" fill="currentColor" />
		<rect x="17.9998" y="21" width="3" height="3.00001" transform="rotate(90 17.9998 21)" fill="currentColor" />
		<rect x="14.999" y="21" width="3" height="3.00001" transform="rotate(90 14.999 21)" fill="currentColor" />
		<rect x="12" y="21" width="3" height="3.00001" transform="rotate(90 12 21)" fill="currentColor" />
		<rect x="8.99609" y="21" width="3" height="3.00001" transform="rotate(90 8.99609 21)" fill="currentColor" />
		<rect x="33" y="24" width="3" height="3.00001" transform="rotate(90 33 24)" fill="currentColor" />
		<rect x="8.99609" y="24" width="3" height="3.00001" transform="rotate(90 8.99609 24)" fill="currentColor" />
		<rect x="33" y="27" width="3" height="3.00001" transform="rotate(90 33 27)" fill="currentColor" />
		<rect x="8.99609" y="27" width="3" height="3.00001" transform="rotate(90 8.99609 27)" fill="currentColor" />
		<rect x="33" y="30" width="3" height="3.00001" transform="rotate(90 33 30)" fill="currentColor" />
		<rect x="8.99609" y="30" width="3" height="3.00001" transform="rotate(90 8.99609 30)" fill="currentColor" />
		<rect x="8.99609" y="33" width="3" height="3.00001" transform="rotate(90 8.99609 33)" fill="currentColor" />
		<rect x="33" y="33" width="3" height="3.00001" transform="rotate(90 33 33)" fill="currentColor" />
		<rect x="36.0007" y="36" width="3" height="3.00001" transform="rotate(90 36.0007 36)" fill="currentColor" />
		<rect x="33" y="36" width="3" height="3.00001" transform="rotate(90 33 36)" fill="currentColor" />
		<rect x="30.0032" y="36" width="3" height="3.00001" transform="rotate(90 30.0032 36)" fill="currentColor" />
		<rect x="26.9998" y="36" width="3" height="3.00001" transform="rotate(90 26.9998 36)" fill="currentColor" />
		<rect x="23.9998" y="36" width="3" height="3.00001" transform="rotate(90 23.9998 36)" fill="currentColor" />
		<rect x="20.999" y="36" width="3" height="3.00001" transform="rotate(90 20.999 36)" fill="currentColor" />
		<rect x="17.9998" y="36" width="3" height="3.00001" transform="rotate(90 17.9998 36)" fill="currentColor" />
		<rect x="14.999" y="36" width="3" height="3.00001" transform="rotate(90 14.999 36)" fill="currentColor" />
		<rect x="12" y="36" width="3" height="3.00001" transform="rotate(90 12 36)" fill="currentColor" />
		<rect x="8.99609" y="36" width="3" height="3.00001" transform="rotate(90 8.99609 36)" fill="currentColor" />
		<rect x="6" y="36" width="3" height="3.00001" transform="rotate(90 6 36)" fill="currentColor" />
		<rect x="39" y="39" width="3.00001" height="3" transform="rotate(-180 39 39)" fill="currentColor" />
		<rect x="39" y="36" width="3.00001" height="3" transform="rotate(-180 39 36)" fill="currentColor" />
		<rect x="39" y="33" width="3.00001" height="3" transform="rotate(-180 39 33)" fill="currentColor" />
		<rect x="39" y="30" width="3.00001" height="3" transform="rotate(-180 39 30)" fill="currentColor" />
		<rect x="39" y="27" width="3.00001" height="3" transform="rotate(-180 39 27)" fill="currentColor" />
		<rect x="39" y="24" width="3.00001" height="3" transform="rotate(-180 39 24)" fill="currentColor" />
		<rect x="39" y="21" width="3.00001" height="3" transform="rotate(-180 39 21)" fill="currentColor" />
		<rect x="39" y="18" width="3.00001" height="3" transform="rotate(-180 39 18)" fill="currentColor" />
		<rect x="39" y="15" width="3.00001" height="3" transform="rotate(-180 39 15)" fill="currentColor" />
		<rect x="39" y="12" width="3.00001" height="3" transform="rotate(-180 39 12)" fill="currentColor" />
		<rect x="39" y="9" width="3.00001" height="3" transform="rotate(-180 39 9)" fill="currentColor" />
</svg>
</symbol> -->
</svg>